#N canvas 116 134 1019 461 10;
#X text 75 49 load;
#X text 253 51 start;
#X text 303 51 stop;
#X obj 74 68 inlet;
#X obj 252 70 inlet;
#X obj 301 70 inlet;
#X obj 385 71 inlet;
#X obj 432 97 inlet;
#X msg 252 139 1;
#X msg 301 138 0;
#X obj 181 387 outlet~;
#X obj 241 386 outlet~;
#X obj 299 386 outlet~;
#X obj 357 386 outlet~;
#X obj 415 386 outlet~;
#X obj 472 386 outlet~;
#X obj 530 386 outlet~;
#X obj 588 386 outlet~;
#X obj 28 138 route list;
#X obj 28 104 pack s s;
#X obj 28 66 bang;
#X obj 119 138 route list;
#X obj 119 103 pack s s;
#X obj 147 68 bang;
#X text 11 7 readsf doesn't support looping: load 2 sounds instead
and play them successively;
#X msg 210 139 1;
#X obj 367 268 ch_env;
#X obj 517 149 inlet;
#X text 564 148 volume;
#X text 430 70 sound position;
#X text 474 97 speaker position;
#X obj 66 194 readsf~ 1 500000;
#X obj 252 194 readsf~ 1 500000;
#X obj 473 125 inlet;
#X text 517 127 speaker scale;
#X connect 3 0 19 0;
#X connect 3 0 22 0;
#X connect 4 0 8 0;
#X connect 5 0 9 0;
#X connect 6 0 26 0;
#X connect 7 0 26 1;
#X connect 8 0 32 0;
#X connect 9 0 31 0;
#X connect 9 0 32 0;
#X connect 18 0 31 0;
#X connect 19 0 18 0;
#X connect 20 0 19 0;
#X connect 21 0 32 0;
#X connect 22 0 21 0;
#X connect 23 0 22 0;
#X connect 25 0 31 0;
#X connect 26 0 10 0;
#X connect 26 1 11 0;
#X connect 26 2 12 0;
#X connect 26 3 13 0;
#X connect 26 4 14 0;
#X connect 26 5 15 0;
#X connect 26 6 16 0;
#X connect 26 7 17 0;
#X connect 27 0 26 4;
#X connect 31 0 26 2;
#X connect 31 1 8 0;
#X connect 31 1 20 0;
#X connect 32 0 26 2;
#X connect 32 1 25 0;
#X connect 32 1 23 0;
#X connect 33 0 26 3;
