#N canvas 10 97 1257 667 10;
#X obj 24 50 inlet;
#X obj 130 51 inlet;
#X text 21 28 snd x;
#X obj 78 50 inlet;
#X obj 181 50 inlet;
#X text 130 27 spk x;
#X text 164 12 obs space;
#X text 47 12 world space;
#X obj 111 252 sqrt;
#X obj 111 289 outlet;
#X text 213 132 compute distance from speaker;
#X obj 111 215 plus;
#X obj 149 131 minus;
#X obj 98 131 minus;
#X text 77 27 snd z;
#X text 180 27 spk z;
#X obj 98 176 times;
#X obj 149 176 times;
#X obj 254 50 inlet;
#X text 245 27 spk scale;
#X obj 130 91 times;
#X obj 181 91 times;
#X connect 0 0 13 0;
#X connect 1 0 20 0;
#X connect 3 0 12 0;
#X connect 4 0 21 0;
#X connect 8 0 9 0;
#X connect 11 0 8 0;
#X connect 12 0 17 0;
#X connect 12 0 17 1;
#X connect 13 0 16 0;
#X connect 13 0 16 1;
#X connect 16 0 11 0;
#X connect 17 0 11 1;
#X connect 18 0 20 1;
#X connect 18 0 21 1;
#X connect 20 0 13 1;
#X connect 21 0 12 1;
