#N canvas 5 73 1257 667 10;
#X obj 154 -12 inlet;
#X obj 40 612 outlet~;
#X obj 114 612 outlet~;
#X obj 192 613 outlet~;
#X obj 271 613 outlet~;
#X obj 346 613 outlet~;
#X obj 426 612 outlet~;
#X obj 496 613 outlet~;
#X obj 573 611 outlet~;
#X obj 37 -10 inlet;
#X obj 154 35 unpack f f f f f f f f f f f f f f f f;
#X obj 40 538 *~;
#X obj 116 535 *~;
#X obj 192 535 *~;
#X obj 272 535 *~;
#X obj 347 534 *~;
#X obj 427 534 *~;
#X obj 498 534 *~;
#X obj 572 534 *~;
#X obj 313 241 inlet~;
#X obj 48 143 ch_dist;
#X obj 115 143 ch_dist;
#X obj 189 143 ch_dist;
#X obj 266 143 ch_dist;
#X obj 344 143 ch_dist;
#X obj 414 143 ch_dist;
#X obj 489 143 ch_dist;
#X obj 560 143 ch_dist;
#X obj 290 349 ch_weight;
#X text 150 -30 speaker x \, z times 8;
#X text 16 -29 sound radius \, x \, z;
#X obj 37 34 unpack f f f;
#X obj 572 571 *~;
#X obj 41 573 *~;
#X obj 115 573 *~;
#X obj 192 572 *~;
#X obj 271 570 *~;
#X obj 346 570 *~;
#X obj 426 570 *~;
#X obj 497 571 *~;
#X obj 941 -8 inlet;
#X text 938 -26 volume;
#X obj 492 33 inlet;
#X text 487 15 speaker scale;
#X connect 0 0 10 0;
#X connect 9 0 31 0;
#X connect 10 0 20 2;
#X connect 10 1 20 3;
#X connect 10 2 21 2;
#X connect 10 3 21 3;
#X connect 10 4 22 2;
#X connect 10 5 22 3;
#X connect 10 6 23 2;
#X connect 10 7 23 3;
#X connect 10 8 24 2;
#X connect 10 9 24 3;
#X connect 10 10 25 2;
#X connect 10 11 25 3;
#X connect 10 12 26 2;
#X connect 10 13 26 3;
#X connect 10 14 27 2;
#X connect 10 15 27 3;
#X connect 11 0 33 1;
#X connect 12 0 34 1;
#X connect 13 0 35 1;
#X connect 14 0 36 1;
#X connect 15 0 37 1;
#X connect 16 0 38 1;
#X connect 17 0 39 1;
#X connect 18 0 32 1;
#X connect 19 0 11 0;
#X connect 19 0 12 0;
#X connect 19 0 13 0;
#X connect 19 0 14 0;
#X connect 19 0 15 0;
#X connect 19 0 16 0;
#X connect 19 0 17 0;
#X connect 19 0 18 0;
#X connect 20 0 28 0;
#X connect 21 0 28 1;
#X connect 22 0 28 2;
#X connect 23 0 28 3;
#X connect 24 0 28 4;
#X connect 25 0 28 5;
#X connect 26 0 28 6;
#X connect 27 0 28 7;
#X connect 28 0 11 1;
#X connect 28 1 12 1;
#X connect 28 2 13 1;
#X connect 28 3 14 1;
#X connect 28 4 15 1;
#X connect 28 5 16 1;
#X connect 28 6 17 1;
#X connect 28 7 18 1;
#X connect 31 0 28 8;
#X connect 31 1 20 0;
#X connect 31 1 21 0;
#X connect 31 1 22 0;
#X connect 31 1 23 0;
#X connect 31 1 24 0;
#X connect 31 1 25 0;
#X connect 31 1 26 0;
#X connect 31 1 27 0;
#X connect 31 2 20 1;
#X connect 31 2 21 1;
#X connect 31 2 22 1;
#X connect 31 2 23 1;
#X connect 31 2 24 1;
#X connect 31 2 25 1;
#X connect 31 2 26 1;
#X connect 31 2 27 1;
#X connect 32 0 8 0;
#X connect 33 0 1 0;
#X connect 34 0 2 0;
#X connect 35 0 3 0;
#X connect 36 0 4 0;
#X connect 37 0 5 0;
#X connect 38 0 6 0;
#X connect 39 0 7 0;
#X connect 40 0 32 0;
#X connect 40 0 39 0;
#X connect 40 0 38 0;
#X connect 40 0 37 0;
#X connect 40 0 36 0;
#X connect 40 0 35 0;
#X connect 40 0 34 0;
#X connect 40 0 33 0;
#X connect 42 0 27 4;
#X connect 42 0 26 4;
#X connect 42 0 25 4;
#X connect 42 0 24 4;
#X connect 42 0 23 4;
#X connect 42 0 22 4;
#X connect 42 0 21 4;
#X connect 42 0 20 4;
