#N canvas 10 97 1257 667 10;
#X obj 14 -28 inlet;
#X obj 1267 -18 inlet;
#X obj 327 -32 inlet;
#X obj 640 -30 inlet;
#X obj 953 -32 inlet;
#X text 14 -45 load;
#X text 325 -50 start;
#X text 638 -47 stop;
#X obj 157 351 env~;
#X floatatom 157 403 5 0 0 0 - - -;
#X obj 14 10 route 1 2 3 4 5 6 7 8 9 10 11 12 13 14 15 16;
#X obj 640 10 route 1 2 3 4 5 6 7 8 9 10 11 12 13 14 15 16;
#X obj 327 10 route 1 2 3 4 5 6 7 8 9 10 11 12 13 14 15 16;
#X obj 953 10 route 1 2 3 4 5 6 7 8 9 10 11 12 13 14 15 16;
#X obj 522 553 +~;
#X obj 614 553 +~;
#X obj 704 553 +~;
#X obj 795 553 +~;
#X obj 885 553 +~;
#X obj 975 553 +~;
#X obj 1064 553 +~;
#X obj 1151 553 +~;
#X text 950 -48 sound;
#X obj 1414 -30 inlet;
#X obj 522 581 outlet~;
#X obj 614 581 outlet~;
#X obj 704 581 outlet~;
#X obj 795 581 outlet~;
#X obj 885 581 outlet~;
#X obj 975 581 outlet~;
#X obj 1065 581 outlet~;
#X obj 1150 581 outlet~;
#X obj 1267 10 route all;
#X obj 156 282 ch_ctrl;
#X obj 239 282 ch_ctrl;
#X obj 322 282 ch_ctrl;
#X obj 405 282 ch_ctrl;
#X obj 488 282 ch_ctrl;
#X obj 571 282 ch_ctrl;
#X obj 654 282 ch_ctrl;
#X obj 737 282 ch_ctrl;
#X obj 820 282 ch_ctrl;
#X obj 903 282 ch_ctrl;
#X obj 986 282 ch_ctrl;
#X obj 1069 282 ch_ctrl;
#X obj 1151 282 ch_ctrl;
#X obj 1234 282 ch_ctrl;
#X obj 1316 282 ch_ctrl;
#X obj 1399 282 ch_ctrl;
#X text 1407 -48 volume;
#X obj 1414 10 route 1 2 3 4 5 6 7 8 9 10 11 12 13 14 15 16;
#X obj 1341 10 route all;
#X obj 1341 -19 inlet;
#X text 1316 -36 speaker scale;
#X text 1235 -49 speaker position;
#X connect 0 0 10 0;
#X connect 1 0 32 0;
#X connect 2 0 12 0;
#X connect 3 0 11 0;
#X connect 4 0 13 0;
#X connect 8 0 9 0;
#X connect 10 0 33 0;
#X connect 10 1 34 0;
#X connect 10 2 35 0;
#X connect 10 3 36 0;
#X connect 10 4 37 0;
#X connect 10 5 38 0;
#X connect 10 6 39 0;
#X connect 10 7 40 0;
#X connect 10 8 41 0;
#X connect 10 9 42 0;
#X connect 10 10 43 0;
#X connect 10 11 44 0;
#X connect 10 12 45 0;
#X connect 10 13 46 0;
#X connect 10 14 47 0;
#X connect 10 15 48 0;
#X connect 11 0 33 2;
#X connect 11 1 34 2;
#X connect 11 2 35 2;
#X connect 11 3 36 2;
#X connect 11 4 37 2;
#X connect 11 5 38 2;
#X connect 11 6 39 2;
#X connect 11 7 40 2;
#X connect 11 8 41 2;
#X connect 11 9 42 2;
#X connect 11 10 43 2;
#X connect 11 11 44 2;
#X connect 11 12 45 2;
#X connect 11 13 46 2;
#X connect 11 14 47 2;
#X connect 11 15 48 2;
#X connect 12 0 33 1;
#X connect 12 1 34 1;
#X connect 12 2 35 1;
#X connect 12 3 36 1;
#X connect 12 4 37 1;
#X connect 12 5 38 1;
#X connect 12 6 39 1;
#X connect 12 7 40 1;
#X connect 12 8 41 1;
#X connect 12 9 42 1;
#X connect 12 10 43 1;
#X connect 12 11 44 1;
#X connect 12 12 45 1;
#X connect 12 13 46 1;
#X connect 12 14 47 1;
#X connect 12 15 48 1;
#X connect 13 0 33 3;
#X connect 13 1 34 3;
#X connect 13 2 35 3;
#X connect 13 3 36 3;
#X connect 13 4 37 3;
#X connect 13 5 38 3;
#X connect 13 6 39 3;
#X connect 13 7 40 3;
#X connect 13 8 41 3;
#X connect 13 9 42 3;
#X connect 13 10 43 3;
#X connect 13 11 44 3;
#X connect 13 12 45 3;
#X connect 13 13 46 3;
#X connect 13 14 47 3;
#X connect 13 15 48 3;
#X connect 14 0 24 0;
#X connect 15 0 25 0;
#X connect 16 0 26 0;
#X connect 17 0 27 0;
#X connect 18 0 28 0;
#X connect 19 0 29 0;
#X connect 20 0 30 0;
#X connect 21 0 31 0;
#X connect 23 0 50 0;
#X connect 32 0 33 4;
#X connect 32 0 34 4;
#X connect 32 0 35 4;
#X connect 32 0 36 4;
#X connect 32 0 37 4;
#X connect 32 0 38 4;
#X connect 32 0 39 4;
#X connect 32 0 40 4;
#X connect 32 0 41 4;
#X connect 32 0 42 4;
#X connect 32 0 43 4;
#X connect 32 0 44 4;
#X connect 32 0 45 4;
#X connect 32 0 46 4;
#X connect 32 0 47 4;
#X connect 32 0 48 4;
#X connect 33 0 8 0;
#X connect 33 0 14 0;
#X connect 33 1 15 0;
#X connect 33 2 16 0;
#X connect 33 3 17 0;
#X connect 33 4 18 0;
#X connect 33 5 19 0;
#X connect 33 6 20 0;
#X connect 33 7 21 0;
#X connect 34 0 14 0;
#X connect 34 1 15 0;
#X connect 34 2 16 0;
#X connect 34 3 17 0;
#X connect 34 4 18 0;
#X connect 34 5 19 0;
#X connect 34 6 20 0;
#X connect 34 7 21 0;
#X connect 35 0 14 0;
#X connect 35 1 15 0;
#X connect 35 2 16 0;
#X connect 35 3 17 0;
#X connect 35 4 18 0;
#X connect 35 5 19 0;
#X connect 35 6 20 0;
#X connect 35 7 21 0;
#X connect 36 0 14 0;
#X connect 36 1 15 0;
#X connect 36 2 16 0;
#X connect 36 3 17 0;
#X connect 36 4 18 0;
#X connect 36 5 19 0;
#X connect 36 6 20 0;
#X connect 36 7 21 0;
#X connect 37 0 14 0;
#X connect 37 1 15 0;
#X connect 37 2 16 0;
#X connect 37 3 17 0;
#X connect 37 4 18 0;
#X connect 37 5 19 0;
#X connect 37 6 20 0;
#X connect 37 7 21 0;
#X connect 38 0 14 0;
#X connect 38 1 15 0;
#X connect 38 2 16 0;
#X connect 38 3 17 0;
#X connect 38 4 18 0;
#X connect 38 5 19 0;
#X connect 38 6 20 0;
#X connect 38 7 21 0;
#X connect 39 0 14 0;
#X connect 39 1 15 0;
#X connect 39 2 16 0;
#X connect 39 3 17 0;
#X connect 39 4 18 0;
#X connect 39 5 19 0;
#X connect 39 6 20 0;
#X connect 39 7 21 0;
#X connect 40 0 14 0;
#X connect 40 1 15 0;
#X connect 40 2 16 0;
#X connect 40 3 17 0;
#X connect 40 4 18 0;
#X connect 40 5 19 0;
#X connect 40 6 20 0;
#X connect 40 7 21 0;
#X connect 41 0 14 0;
#X connect 41 1 15 0;
#X connect 41 2 16 0;
#X connect 41 3 17 0;
#X connect 41 4 18 0;
#X connect 41 5 19 0;
#X connect 41 6 20 0;
#X connect 41 7 21 0;
#X connect 42 0 14 0;
#X connect 42 1 15 0;
#X connect 42 2 16 0;
#X connect 42 3 17 0;
#X connect 42 4 18 0;
#X connect 42 5 19 0;
#X connect 42 6 20 0;
#X connect 42 7 21 0;
#X connect 43 0 14 0;
#X connect 43 1 15 0;
#X connect 43 2 16 0;
#X connect 43 3 17 0;
#X connect 43 4 18 0;
#X connect 43 5 19 0;
#X connect 43 6 20 0;
#X connect 43 7 21 0;
#X connect 44 0 14 0;
#X connect 44 1 15 0;
#X connect 44 2 16 0;
#X connect 44 3 17 0;
#X connect 44 4 18 0;
#X connect 44 5 19 0;
#X connect 44 6 20 0;
#X connect 44 7 21 0;
#X connect 45 0 14 0;
#X connect 45 1 15 0;
#X connect 45 2 16 0;
#X connect 45 3 17 0;
#X connect 45 4 18 0;
#X connect 45 5 19 0;
#X connect 46 0 14 0;
#X connect 46 1 15 0;
#X connect 46 2 16 0;
#X connect 46 3 17 0;
#X connect 46 4 18 0;
#X connect 46 5 19 0;
#X connect 46 6 20 0;
#X connect 46 7 21 0;
#X connect 47 0 14 0;
#X connect 47 1 15 0;
#X connect 47 2 16 0;
#X connect 47 3 17 0;
#X connect 47 4 18 0;
#X connect 47 5 19 0;
#X connect 47 6 20 0;
#X connect 47 7 21 0;
#X connect 48 0 14 0;
#X connect 48 1 15 0;
#X connect 48 2 16 0;
#X connect 48 3 17 0;
#X connect 48 4 18 0;
#X connect 48 5 19 0;
#X connect 48 6 20 0;
#X connect 48 7 21 0;
#X connect 50 0 33 6;
#X connect 50 1 34 6;
#X connect 50 2 35 6;
#X connect 50 3 36 6;
#X connect 50 4 37 6;
#X connect 50 5 38 6;
#X connect 50 6 39 6;
#X connect 50 7 40 6;
#X connect 50 8 41 6;
#X connect 50 9 42 6;
#X connect 50 10 43 6;
#X connect 50 11 44 6;
#X connect 50 12 45 6;
#X connect 50 13 46 6;
#X connect 50 14 47 6;
#X connect 50 15 48 6;
#X connect 51 0 33 5;
#X connect 51 0 34 5;
#X connect 51 0 35 5;
#X connect 51 0 36 5;
#X connect 51 0 37 5;
#X connect 51 0 38 5;
#X connect 51 0 39 5;
#X connect 51 0 40 5;
#X connect 51 0 41 5;
#X connect 51 0 42 5;
#X connect 51 0 43 5;
#X connect 51 0 44 5;
#X connect 51 0 45 5;
#X connect 51 0 46 5;
#X connect 51 0 47 5;
#X connect 51 0 48 5;
#X connect 52 0 51 0;
