#N canvas 0 49 1257 667 10;
#X obj 52 20 inlet;
#X obj 52 196 outlet;
#X obj 52 163 max 0;
#X obj 52 132 + 1;
#X obj 52 105 * -1;
#X obj 52 163 max 0;
#X obj 52 105 * -1;
#X obj 52 105 * -1;
#X obj 52 132 + 1;
#X obj 52 132 + 1;
#X obj 115 21 inlet;
#X obj 52 65 divide;
#X obj 135 73 print dist;
#X connect 0 0 11 0;
#X connect 2 0 1 0;
#X connect 3 0 2 0;
#X connect 4 0 3 0;
#X connect 10 0 11 1;
#X connect 11 0 4 0;
