#N canvas 0 49 1257 667 10;
#X obj 47 25 inlet;
#X obj 110 24 inlet;
#X obj 166 23 inlet;
#X obj 223 23 inlet;
#X obj 281 23 inlet;
#X obj 334 23 inlet;
#X obj 389 22 inlet;
#X obj 495 22 inlet;
#X obj 440 22 inlet;
#X obj 139 124 outlet;
#X obj 47 124 outlet;
#X obj 236 125 outlet;
#X obj 326 125 outlet;
#X obj 680 126 outlet;
#X obj 415 125 outlet;
#X obj 506 125 outlet;
#X obj 594 125 outlet;
#X text 494 3 radius;
#X text 46 4 distances;
#X obj 47 88 ch_norm;
#X obj 139 87 ch_norm;
#X obj 236 86 ch_norm;
#X obj 326 86 ch_norm;
#X obj 415 87 ch_norm;
#X obj 506 87 ch_norm;
#X obj 594 87 ch_norm;
#X obj 680 88 ch_norm;
#X connect 0 0 19 0;
#X connect 1 0 20 0;
#X connect 2 0 21 0;
#X connect 3 0 22 0;
#X connect 4 0 23 0;
#X connect 5 0 24 0;
#X connect 6 0 25 0;
#X connect 7 0 19 1;
#X connect 7 0 20 1;
#X connect 7 0 21 1;
#X connect 7 0 22 1;
#X connect 7 0 23 1;
#X connect 7 0 24 1;
#X connect 7 0 25 1;
#X connect 7 0 26 1;
#X connect 8 0 26 0;
#X connect 19 0 10 0;
#X connect 20 0 9 0;
#X connect 21 0 11 0;
#X connect 22 0 12 0;
#X connect 23 0 14 0;
#X connect 24 0 15 0;
#X connect 25 0 16 0;
#X connect 26 0 13 0;
