#N canvas 0 49 1257 667 10;
#X obj 24 20 inlet;
#X obj 83 20 inlet;
#X obj 83 113 t b f;
#X obj 66 211 outlet;
#X text 100 163 force addition when 1 of the 2 argument changes;
#X obj 83 62 moses 1e-08;
#X text 168 61 only modify if non zero;
#X obj 66 162 / 1;
#X obj 83 88 print diverror;
#X connect 0 0 7 0;
#X connect 1 0 5 0;
#X connect 2 0 7 0;
#X connect 2 1 7 1;
#X connect 5 0 8 0;
#X connect 5 1 2 0;
#X connect 7 0 3 0;
