#N canvas 6 49 1247 664 10;
#X floatatom 333 215 5 0 0 0 - - -;
#X obj 347 246 playlist;
#X msg 237 93 0;
#X msg 188 93 1;
#X msg 117 17 start;
#X msg 168 17 stop;
#X msg 213 17 reset;
#X msg 29 49 \; pd dsp 1;
#X obj 29 17 loadbang;
#X floatatom 367 42 5 0 0 0 - - -;
#X msg 707 282 reset;
#X floatatom 570 296 5 0 0 0 - - -;
#X obj 62 356 s all-master-lvl;
#X obj 63 381 s 1-lvl;
#X obj 63 408 s 2-lvl;
#X obj 64 436 s 3-lvl;
#X obj 64 461 s 4-lvl;
#X obj 64 487 s 5-lvl;
#X obj 65 514 s 6-lvl;
#X obj 65 541 s 7-lvl;
#X obj 65 568 s 8-lvl;
#X obj 196 607 output~ 1;
#X obj 288 607 output~ 2;
#X obj 756 607 output~ 7;
#X obj 378 607 output~ 3;
#X obj 565 606 output~ 5;
#X obj 471 607 output~ 4;
#X obj 659 606 output~ 6;
#X obj 850 606 output~ 8;
#X msg 288 92 0;
#X obj 338 388 route 1 2 3 4 5 6 7 8 9 10;
#X obj 150 388 route 1 2 3 4 5 6 7 8 9 10;
#X obj 527 388 route 1 2 3 4 5 6 7 8 9 10;
#X obj 715 388 route 1 2 3 4 5 6 7 8 9 10;
#X text 989 409 each channelgrp is a 16 sound module mapped to the
outputs;
#X obj 905 387 route all;
#X obj 195 584 s~ 1-output;
#X obj 287 584 s~ 2-output;
#X obj 378 584 s~ 3-output;
#X obj 471 585 s~ 4-output;
#X obj 564 584 s~ 5-output;
#X obj 659 583 s~ 6-output;
#X obj 755 583 s~ 7-output;
#X obj 849 583 s~ 8-output;
#X obj 188 60 route start stop reset volume;
#X obj 13 326 route 0 1 2 3 4 5 6 7 8;
#X obj 520 502 ch_grp;
#X msg 706 260 load /home/chapdelv/fabrique/looptest/test_angles.pll
;
#X msg 705 196 start 1 1;
#X msg 706 237 stop 1 1;
#X obj 232 246 print playlist;
#X msg 385 18 volume 0 100;
#X msg 485 17 volume 1 1;
#X obj 401 60 print ctrl;
#X obj 383 317 print sounds;
#X obj 1051 388 route 1 2 3 4 5 6 7 8 9 10;
#X msg 704 152 volume 1 1 1;
#X msg 836 152 volume 1 1 0.3;
#X msg 703 84 spk_pos all all 0 1 1 0 0 1 0 1 0 1 0 1 0 1 0 1;
#X msg 705 174 volume 1 2 1;
#X msg 703 106 snd_pos 1 1 1 0 1;
#X msg 835 106 snd_pos 1 1 1 1 0;
#X msg 573 17 volume 2 1;
#X msg 835 129 snd_pos 1 2 1 0 1;
#X msg 702 130 snd_pos 1 2 1 1 0;
#X msg 967 105 snd_pos 1 1 1 -1 0;
#X msg 967 129 snd_pos 1 1 1 0 -1;
#X msg 703 46 load 1 1 open /home/chapdelv/fabrique/looptest/01c.wav
;
#X msg 703 65 load 1 2 open /home/chapdelv/fabrique/looptest/02c.wav
;
#X msg 705 217 start 1 2;
#X obj 479 317 route load start stop snd_pos spk_pos spk_scale volume
;
#X obj 978 387 route all;
#X obj 221 189 + 0.016;
#X obj 237 128 metro 16;
#X obj 263 17 netreceive 10010;
#X obj 282 190 netreceive 10020;
#X obj 384 273 netreceive 10030;
#X msg 702 22 camera viewmatrix 0_100000_1_0_0_0_0_1_0_0_0_0_1_0_0_0_0_1
;
#X obj 47 91 bang~;
#X obj 108 128 + 1;
#X obj 47 127 int 0;
#X obj 47 155 / 48000;
#X obj 47 183 * 64;
#X obj 168 190 float;
#X floatatom 168 248 5 0 0 0 - - -;
#X connect 2 0 73 0;
#X connect 3 0 73 0;
#X connect 4 0 44 0;
#X connect 5 0 44 0;
#X connect 6 0 44 0;
#X connect 8 0 7 0;
#X connect 8 0 29 0;
#X connect 10 0 1 0;
#X connect 29 0 80 0;
#X connect 30 0 46 1;
#X connect 31 0 46 0;
#X connect 32 0 46 2;
#X connect 33 0 46 3;
#X connect 35 0 46 4;
#X connect 44 0 3 0;
#X connect 44 1 2 0;
#X connect 44 2 29 0;
#X connect 44 3 45 0;
#X connect 45 0 12 0;
#X connect 45 1 13 0;
#X connect 45 2 14 0;
#X connect 45 3 15 0;
#X connect 45 4 16 0;
#X connect 45 5 17 0;
#X connect 45 6 18 0;
#X connect 45 7 19 0;
#X connect 45 8 20 0;
#X connect 46 0 36 0;
#X connect 46 1 37 0;
#X connect 46 2 38 0;
#X connect 46 3 39 0;
#X connect 46 4 40 0;
#X connect 46 5 41 0;
#X connect 46 6 42 0;
#X connect 46 7 43 0;
#X connect 47 0 1 0;
#X connect 48 0 70 0;
#X connect 49 0 70 0;
#X connect 51 0 44 0;
#X connect 52 0 44 0;
#X connect 55 0 46 6;
#X connect 56 0 70 0;
#X connect 57 0 70 0;
#X connect 58 0 70 0;
#X connect 59 0 70 0;
#X connect 60 0 70 0;
#X connect 61 0 70 0;
#X connect 62 0 44 0;
#X connect 63 0 70 0;
#X connect 64 0 70 0;
#X connect 65 0 70 0;
#X connect 66 0 70 0;
#X connect 67 0 70 0;
#X connect 68 0 70 0;
#X connect 69 0 70 0;
#X connect 70 0 31 0;
#X connect 70 1 30 0;
#X connect 70 2 32 0;
#X connect 70 3 33 0;
#X connect 70 4 35 0;
#X connect 70 5 71 0;
#X connect 70 6 55 0;
#X connect 71 0 46 5;
#X connect 73 0 83 0;
#X connect 74 0 44 0;
#X connect 74 1 9 0;
#X connect 75 0 1 0;
#X connect 75 1 0 0;
#X connect 76 0 70 0;
#X connect 76 1 11 0;
#X connect 77 0 1 0;
#X connect 78 0 80 0;
#X connect 79 0 80 1;
#X connect 80 0 79 0;
#X connect 80 0 81 0;
#X connect 81 0 82 0;
#X connect 82 0 83 1;
#X connect 83 0 84 0;
#X connect 83 0 1 0;
#X coords 0 0 1 1 400 400 0;
