#N canvas 444 158 450 300 10;
#X obj 24 20 inlet;
#X obj 83 20 inlet;
#X obj 83 71 t b f;
#X obj 66 120 +;
#X obj 66 169 outlet;
#X text 100 121 force addition when 1 of the 2 argument changes;
#X connect 0 0 3 0;
#X connect 1 0 2 0;
#X connect 2 0 3 0;
#X connect 2 1 3 1;
#X connect 3 0 4 0;
