#N canvas 559 242 450 300 10;
#X obj 176 155 ch_dist;
#X msg 75 100 1;
#X msg 307 101 0;
#X msg 116 102 0;
#X msg 199 101 0;
#X msg 235 101 0;
#X msg 270 100 0;
#X obj 191 61 bang;
#X msg 191 35 1;
#X msg 158 100 1;
#X connect 1 0 0 0;
#X connect 2 0 0 6;
#X connect 3 0 0 1;
#X connect 4 0 0 3;
#X connect 5 0 0 4;
#X connect 6 0 0 5;
#X connect 7 0 1 0;
#X connect 7 0 3 0;
#X connect 7 0 9 0;
#X connect 7 0 4 0;
#X connect 7 0 5 0;
#X connect 7 0 6 0;
#X connect 7 0 2 0;
#X connect 8 0 7 0;
#X connect 9 0 0 2;
