#N canvas 729 40 502 485 10;
#X text 27 14 LUA BOX;
#X floatatom 141 38 5 0 0 0 - - -;
#X msg 217 21 toto 123;
#X msg 250 51 aa bb cc dd;
#X msg 281 88 list abc 123;
#X obj 36 58 pack 1 2;
#X floatatom 21 35 5 0 0 0 - - -;
#X obj 49 198 print;
#X msg 192 219 bonjour "ceci est un test";
#X msg 206 166 xyz 1 2 ( toto blub float );
#X msg 133 249 \; lua print 1+2 + 3;
#X obj 119 14 r lua;
#X msg 343 39 \; lua dofile init.lua;
#X msg 116 310 \; lua toto 4 5;
#X msg 221 306 \; lua blub 4 5;
#X obj 109 93 luabox 3;
#X obj 61 148 print A;
#X obj 85 171 print B;
#X obj 108 196 print C;
#X msg 288 256 \; lua 1.5 5.6;
#X msg 296 354 \; lua list allo blub;
#X obj 373 8 loadbang;
#X connect 1 0 15 0;
#X connect 2 0 15 0;
#X connect 3 0 15 0;
#X connect 4 0 15 0;
#X connect 5 0 7 0;
#X connect 5 0 15 0;
#X connect 6 0 5 0;
#X connect 6 0 5 1;
#X connect 8 0 15 0;
#X connect 9 0 15 0;
#X connect 11 0 15 0;
#X connect 15 0 16 0;
#X connect 15 1 17 0;
#X connect 15 2 18 0;
#X connect 21 0 12 0;
