#N canvas 0 49 1257 667 10;
#X msg 31 144 1;
#X msg 31 165 0;
#X msg 18 114 open /home/chapdelv/fabrique/looptest/01.wav;
#X obj 22 212 readsf~ 1 1e+06;
#X obj 21 276 env~;
#X floatatom 21 317 5 0 0 0 - - -;
#X msg 20 42 \; pd dsp 1;
#X obj 20 10 loadbang;
#X obj 169 63 s all-master-lvl;
#X obj 99 64 s 1-lvl;
#X obj 66 275 s~ 1-output;
#X msg 99 40 1;
#X obj 20 352 output~ 1;
#X msg 169 36 100;
#X connect 0 0 3 0;
#X connect 1 0 3 0;
#X connect 2 0 3 0;
#X connect 3 0 4 0;
#X connect 3 0 10 0;
#X connect 4 0 5 0;
#X connect 7 0 6 0;
#X connect 7 0 11 0;
#X connect 7 0 13 0;
#X connect 11 0 9 0;
#X connect 13 0 8 0;
