#N canvas 320 117 450 300 10;
#X obj 191 61 bang;
#X msg 191 35 1;
#X obj 178 155 ch_weight;
#X msg 199 101 1;
#X msg 270 100 1;
#X msg 236 101 1;
#X msg 307 101 1;
#X msg 75 100 0;
#X obj 136 200 pack f f f f f f f f;
#X obj 136 241 print weight;
#X msg 116 102 2;
#X msg 158 100 0.5;
#X msg 346 99 1;
#X text 382 78 radius;
#X msg 385 99 2;
#X connect 0 0 7 0;
#X connect 0 0 10 0;
#X connect 0 0 11 0;
#X connect 0 0 3 0;
#X connect 0 0 5 0;
#X connect 0 0 4 0;
#X connect 0 0 6 0;
#X connect 0 0 12 0;
#X connect 0 0 14 0;
#X connect 1 0 0 0;
#X connect 2 0 8 0;
#X connect 2 1 8 1;
#X connect 2 2 8 2;
#X connect 2 3 8 3;
#X connect 2 4 8 4;
#X connect 2 5 8 5;
#X connect 2 6 8 6;
#X connect 2 7 8 7;
#X connect 3 0 2 3;
#X connect 4 0 2 5;
#X connect 5 0 2 4;
#X connect 6 0 2 6;
#X connect 7 0 2 0;
#X connect 8 0 9 0;
#X connect 10 0 2 1;
#X connect 11 0 2 2;
#X connect 12 0 2 7;
#X connect 14 0 2 8;
