#N canvas 234 110 1018 626 10;
#X obj 308 -2 loadbang;
#X obj 112 206 r lua;
#X msg 28 118 \; lua midiin \$1 \$2;
#X text 46 65 MIDI DATA IN;
#X obj 260 172 print;
#X msg 321 27 \; lua dofile patch.lua;
#X obj 201 131 float;
#X obj 209 58 tgl 15 0 empty empty empty 17 7 0 10 -262144 -1 -1 0
1;
#X msg 175 53 0;
#X msg 24 373 \; net sendsafe model 0 particulesNeige.osg \; net sendsafe
fade 0 1;
#X msg 63 583 \; net send fade 0 \$1;
#X msg 386 343 \; net sendsafe unload 0;
#X obj 70 554 hsl 128 15 0 1 0 0 empty empty empty -2 -8 0 10 -262144
-1 -1 0 1;
#X obj 561 125 hsl 128 15 -3 3 0 0 empty empty empty -2 -8 0 10 -262144
-1 -1 0 1;
#X obj 248 554 hsl 128 15 0 1 0 0 empty empty empty -2 -8 0 10 -262144
-1 -1 0 1;
#X msg 250 580 \; net send fade 1 \$1;
#X msg 302 388 \; net sendsafe unload 1;
#X msg 307 441 \; net sendsafe unload 2;
#X msg 20 479 \; net sendsafe movie 2 plantspano2.mpg \; net sendsafe
fade 2 1;
#X msg 629 411 \; net sendsafe movie 2 02_Rouge02_Vibration.mov \;
net sendsafe fade 2 1;
#X msg 631 569 \; net sendsafe movie 2 03_ReNeige_EtoilesFilantes.mov
\; net sendsafe fade 2 1;
#X msg 627 305 \; net sendsafe movie 2 01_JeNe01_NuageNoir.mov \; net
sendsafe fade 2 1;
#X msg 630 515 \; net sendsafe movie 2 03_ReNeige_LigneBlanche.mov
\; net sendsafe fade 2 1;
#X obj 610 29 r midiout;
#X obj 147 268 route net midiout;
#X obj 75 336 print net;
#X obj 134 311 s net;
#X obj 194 309 s midiout;
#X obj 273 307 print other;
#X obj 126 239 luabox 1;
#X msg 330 486 \; net sendsafe play 2 start;
#X msg 331 521 \; net sendsafe play 2 stop;
#X msg 195 191 \; net send time \$1;
#X obj 199 92 metro 10000;
#X obj 257 129 + 10;
#X obj 408 554 hsl 128 15 0 1 0 0 empty empty empty -2 -8 0 10 -262144
-1 -1 0 1;
#X msg 408 582 \; net send fade 2 \$1;
#X msg 783 233 \; net send scaletrans 2 1 1 0 0;
#X msg 817 71 \; net send fps 2 10;
#X msg 817 114 \; net send fps 2 20;
#X msg 816 168 \; net send fps 2 1;
#X text 566 8 midiout controleur valeur;
#N canvas 746 153 450 525 multimidiout 0;
#X obj 104 434 ctlout;
#X msg 185 116 0;
#X obj 221 72 loadbang;
#X text 76 50 midiout controleur valeur;
#X obj 120 71 inlet;
#X obj 274 144 r offset;
#X obj 214 248 ==;
#X obj 86 106 unpack f f;
#X obj 205 154 / 1000;
#X obj 205 181 int;
#X obj 205 207 * 1000;
#X obj 124 319 spigot 0;
#X obj 127 211 % 1000;
#X obj 55 240 pack;
#X obj 324 78 inlet;
#X text 321 55 direct;
#X msg 348 137 \$2 \$1;
#X msg 39 -10 \; midiout 81 60;
#X msg 30 24 \; midiout 81 0;
#X text 68 126 Ctl;
#X text 156 124 Val;
#X obj 95 154 t b f f;
#X obj 70 180 float;
#X msg 144 -11 \; midiout 1081 34;
#X msg 261 -8 \; midiout 3081 90;
#X connect 1 0 0 2;
#X connect 2 0 1 0;
#X connect 4 0 7 0;
#X connect 5 0 6 1;
#X connect 6 0 11 1;
#X connect 7 0 21 0;
#X connect 7 1 22 1;
#X connect 8 0 9 0;
#X connect 9 0 10 0;
#X connect 10 0 6 0;
#X connect 11 0 0 0;
#X connect 12 0 13 1;
#X connect 13 0 11 0;
#X connect 14 0 16 0;
#X connect 16 0 0 0;
#X connect 21 0 22 0;
#X connect 21 1 12 0;
#X connect 21 2 8 0;
#X connect 22 0 13 0;
#X restore 604 85 pd multimidiout;
#N canvas 23 261 540 339 multimidiin 0;
#X obj 77 13 ctlin;
#X floatatom 61 60 5 0 0 0 - - -;
#X floatatom 110 49 5 0 0 0 - - -;
#X obj 44 130 pack;
#X text 125 33 CC;
#X text 50 43 VAL;
#X obj 25 237 outlet;
#X msg 17 262 \; midiout 81 0;
#X obj 141 215 route 89 90 91 92;
#X obj 122 102 + 0;
#X obj 90 134 pack;
#X obj 234 31 route 0 127;
#X obj 148 71 r offset;
#X obj 254 95 route 89 90 91 92;
#X obj 270 63 % 1000;
#X obj 205 125 % 1000;
#X msg 380 135 \; offset 3000 \; dmidiout 89 0 \; dmidiout 90 0 \;
dmidiout 92 0 \; lua refreshMidi;
#X msg 307 219 \; offset 2000 \; dmidiout 89 0 \; dmidiout 91 0 \;
dmidiout 92 0 \; lua refreshMidi;
#X msg 423 215 \; offset 4000 \; dmidiout 89 0 \; dmidiout 90 0 \;
dmidiout 91 0 \; lua refreshMidi;
#X msg 150 256 \; offset 0 \; lua refreshMidi;
#X obj 211 5 inlet;
#X obj 132 13 unpack;
#X msg 274 135 \; offset 1000 \; dmidiout 90 0 \; dmidiout 91 0 \;
dmidiout 92 0 \; lua refreshMidi \;;
#X connect 0 0 1 0;
#X connect 0 1 2 0;
#X connect 1 0 3 0;
#X connect 1 0 10 0;
#X connect 2 0 9 0;
#X connect 2 0 10 1;
#X connect 3 0 6 0;
#X connect 8 0 19 0;
#X connect 8 1 19 0;
#X connect 8 2 19 0;
#X connect 8 3 19 0;
#X connect 9 0 3 1;
#X connect 10 0 11 0;
#X connect 11 0 15 0;
#X connect 11 1 14 0;
#X connect 12 0 9 1;
#X connect 13 0 22 0;
#X connect 13 1 17 0;
#X connect 13 2 16 0;
#X connect 13 3 18 0;
#X connect 14 0 13 0;
#X connect 15 0 8 0;
#X connect 20 0 21 0;
#X connect 21 0 1 0;
#X connect 21 1 2 0;
#X restore 40 89 pd multimidiin;
#X obj 697 28 r dmidiout;
#X obj 380 144 loadbang;
#X obj 16 47 r midiin;
#X msg 378 184 \; midiin 0 89 \; midiin 0 90 \; midiin 0 91 \; midiin
0 92 \; dmidiout 89 0 \; dmidiout 90 0 \; dmidiout 91 0 \; dmidiout
92 0 \;;
#X obj 597 208 hsl 128 15 1 60 0 0 empty empty empty -2 -8 0 10 -262144
-1 -1 0 1;
#X msg 604 236 \; net send fps 2 \$1;
#X msg 564 167 \; net send scaletrans 0 1 1 \$1 0;
#X msg 736 118 0;
#X msg 24 427 \; net sendsafe image 1 test/logo-udm.png \; net sendsafe
fade 1 1;
#X obj 40 256 mcnetsend;
#X obj 14 308 print net;
#X obj 29 204 r net;
#X msg 313 76 \; net connect 10000 1;
#X msg 628 467 \; net sendsafe movie 2 flous/03_ReNeige_Daniel.mov
\; net sendsafe fade 2 1;
#X connect 0 0 5 0;
#X connect 0 0 56 0;
#X connect 1 0 29 0;
#X connect 6 0 4 0;
#X connect 6 0 32 0;
#X connect 6 0 34 0;
#X connect 7 0 33 0;
#X connect 8 0 6 0;
#X connect 12 0 10 0;
#X connect 13 0 50 0;
#X connect 14 0 15 0;
#X connect 23 0 42 0;
#X connect 24 0 26 0;
#X connect 24 1 27 0;
#X connect 24 2 28 0;
#X connect 29 0 24 0;
#X connect 33 0 6 0;
#X connect 34 0 6 1;
#X connect 35 0 36 0;
#X connect 43 0 2 0;
#X connect 44 0 42 1;
#X connect 45 0 47 0;
#X connect 46 0 2 0;
#X connect 48 0 49 0;
#X connect 51 0 50 0;
#X connect 55 0 54 0;
#X connect 55 0 53 0;
