#N canvas 93 89 450 419 10;
#X text 21 11 test midi;
#X obj 138 9 ctlin;
#X floatatom 47 83 5 0 0 0 - - -;
#X floatatom 185 69 5 0 0 0 - - -;
#X floatatom 257 34 5 0 0 0 - - -;
#X obj 250 82 ctlout 89;
#X obj 24 379 print;
#X obj 104 121 pack;
#X obj 79 195 * 128;
#X obj 79 239 +;
#X floatatom 81 279 5 0 0 0 - - -;
#X obj 104 84 f;
#X obj 110 56 t b f;
#X obj 225 208 f;
#X obj 25 340 -;
#X obj 24 295 t f f;
#X obj 25 248 print;
#X obj 143 195 * 128;
#X obj 151 231 +;
#X floatatom 137 267 5 0 0 0 - - -;
#X obj 81 154 route 20 52 22 54;
#X connect 1 0 2 0;
#X connect 1 0 12 0;
#X connect 1 1 3 0;
#X connect 1 1 11 1;
#X connect 4 0 5 0;
#X connect 7 0 16 0;
#X connect 7 0 20 0;
#X connect 8 0 9 1;
#X connect 9 0 10 0;
#X connect 9 0 15 0;
#X connect 11 0 7 0;
#X connect 12 0 11 0;
#X connect 12 1 7 1;
#X connect 14 0 6 0;
#X connect 15 0 14 1;
#X connect 15 1 14 0;
#X connect 17 0 18 1;
#X connect 18 0 19 0;
#X connect 20 0 8 0;
#X connect 20 1 9 0;
#X connect 20 2 17 0;
#X connect 20 3 18 0;
